{
    "patcher": {
        "fileversion": 1,
        "appversion": {
            "major": 9,
            "minor": 1,
            "revision": 2,
            "architecture": "x64",
            "modernui": 1
        },
        "classnamespace": "box",
        "rect": [ 363.0, 139.0, 1000.0, 701.0 ],
        "boxes": [
            {
                "box": {
                    "id": "obj-32",
                    "linecount": 6,
                    "maxclass": "comment",
                    "numinlets": 1,
                    "numoutlets": 0,
                    "patching_rect": [ 24.0, 332.0, 150.0, 87.0 ],
                    "text": "This is an example of an ABSTRACTION. It is saved on disk, and is loaded by itself. You can make infinite copies of this patch."
                }
            },
            {
                "box": {
                    "id": "obj-30",
                    "maxclass": "comment",
                    "numinlets": 1,
                    "numoutlets": 0,
                    "patching_rect": [ 888.0, 112.0, 112.0, 20.0 ],
                    "text": " -- 0 dB (unity gain)"
                }
            },
            {
                "box": {
                    "id": "obj-28",
                    "maxclass": "newobj",
                    "numinlets": 1,
                    "numoutlets": 1,
                    "outlettype": [ "" ],
                    "patching_rect": [ 391.0, 42.0, 83.0, 22.0 ],
                    "text": "loadmess 128"
                }
            },
            {
                "box": {
                    "id": "obj-24",
                    "maxclass": "newobj",
                    "numinlets": 1,
                    "numoutlets": 1,
                    "outlettype": [ "signal" ],
                    "patching_rect": [ 794.0, 41.0, 81.0, 22.0 ],
                    "text": "receive~ out2"
                }
            },
            {
                "box": {
                    "id": "obj-25",
                    "maxclass": "live.meter~",
                    "numinlets": 1,
                    "numoutlets": 2,
                    "outlettype": [ "float", "int" ],
                    "patching_rect": [ 868.0, 93.0, 18.0, 139.0 ],
                    "slidercolor": [ 0.079348079365577, 0.07934804057877, 0.079348050547289, 1.0 ]
                }
            },
            {
                "box": {
                    "id": "obj-26",
                    "maxclass": "live.meter~",
                    "numinlets": 1,
                    "numoutlets": 2,
                    "outlettype": [ "float", "int" ],
                    "patching_rect": [ 785.0, 93.0, 18.0, 139.0 ],
                    "slidercolor": [ 0.079348079365577, 0.07934804057877, 0.079348050547289, 1.0 ]
                }
            },
            {
                "box": {
                    "id": "obj-27",
                    "maxclass": "gain~",
                    "multichannelvariant": 0,
                    "numinlets": 1,
                    "numoutlets": 2,
                    "outlettype": [ "signal", "" ],
                    "parameter_enable": 0,
                    "patching_rect": [ 823.0, 92.0, 22.0, 140.0 ]
                }
            },
            {
                "box": {
                    "id": "obj-23",
                    "maxclass": "comment",
                    "numinlets": 1,
                    "numoutlets": 0,
                    "patching_rect": [ 728.0, 294.5, 150.0, 20.0 ],
                    "text": "<ezdac~>"
                }
            },
            {
                "box": {
                    "id": "obj-21",
                    "maxclass": "ezdac~",
                    "numinlets": 2,
                    "numoutlets": 0,
                    "patching_rect": [ 676.0, 282.0, 45.0, 45.0 ]
                }
            },
            {
                "box": {
                    "id": "obj-19",
                    "maxclass": "newobj",
                    "numinlets": 1,
                    "numoutlets": 1,
                    "outlettype": [ "signal" ],
                    "patching_rect": [ 646.5, 41.0, 81.0, 22.0 ],
                    "text": "receive~ out1"
                }
            },
            {
                "box": {
                    "id": "obj-18",
                    "maxclass": "live.meter~",
                    "numinlets": 1,
                    "numoutlets": 2,
                    "outlettype": [ "float", "int" ],
                    "patching_rect": [ 721.0, 93.0, 18.0, 139.0 ],
                    "slidercolor": [ 0.079348079365577, 0.07934804057877, 0.079348050547289, 1.0 ]
                }
            },
            {
                "box": {
                    "id": "obj-17",
                    "maxclass": "live.meter~",
                    "numinlets": 1,
                    "numoutlets": 2,
                    "outlettype": [ "float", "int" ],
                    "patching_rect": [ 638.0, 93.0, 18.0, 139.0 ],
                    "slidercolor": [ 0.079348079365577, 0.07934804057877, 0.079348050547289, 1.0 ]
                }
            },
            {
                "box": {
                    "id": "obj-16",
                    "maxclass": "gain~",
                    "multichannelvariant": 0,
                    "numinlets": 1,
                    "numoutlets": 2,
                    "outlettype": [ "signal", "" ],
                    "parameter_enable": 0,
                    "patching_rect": [ 676.0, 92.0, 22.0, 140.0 ]
                }
            },
            {
                "box": {
                    "id": "obj-14",
                    "maxclass": "comment",
                    "numinlets": 1,
                    "numoutlets": 0,
                    "patching_rect": [ 486.5, 42.0, 117.0, 20.0 ],
                    "text": "master control fader"
                }
            },
            {
                "box": {
                    "id": "obj-11",
                    "maxclass": "slider",
                    "numinlets": 1,
                    "numoutlets": 1,
                    "outlettype": [ "" ],
                    "parameter_enable": 0,
                    "patching_rect": [ 535.0, 92.0, 20.0, 140.0 ]
                }
            },
            {
                "box": {
                    "id": "obj-9",
                    "maxclass": "comment",
                    "numinlets": 1,
                    "numoutlets": 0,
                    "patching_rect": [ 123.0, 172.0, 150.0, 20.0 ],
                    "text": "<gain~>"
                }
            },
            {
                "box": {
                    "id": "obj-7",
                    "maxclass": "gain~",
                    "multichannelvariant": 0,
                    "numinlets": 1,
                    "numoutlets": 2,
                    "outlettype": [ "signal", "" ],
                    "parameter_enable": 0,
                    "patching_rect": [ 93.0, 172.0, 22.0, 140.0 ]
                }
            },
            {
                "box": {
                    "id": "obj-6",
                    "maxclass": "comment",
                    "numinlets": 1,
                    "numoutlets": 0,
                    "patching_rect": [ 77.0, 136.0, 150.0, 20.0 ],
                    "text": "<live.meter~>"
                }
            },
            {
                "box": {
                    "id": "obj-4",
                    "maxclass": "live.meter~",
                    "numinlets": 1,
                    "numoutlets": 2,
                    "outlettype": [ "float", "int" ],
                    "patching_rect": [ 62.0, 132.0, 5.0, 100.0 ],
                    "slidercolor": [ 0.079348079365577, 0.07934804057877, 0.079348050547289, 1.0 ]
                }
            },
            {
                "box": {
                    "id": "obj-3",
                    "maxclass": "comment",
                    "numinlets": 1,
                    "numoutlets": 0,
                    "patching_rect": [ 53.0, 92.0, 150.0, 20.0 ],
                    "text": "<slider>"
                }
            },
            {
                "box": {
                    "id": "obj-1",
                    "maxclass": "slider",
                    "numinlets": 1,
                    "numoutlets": 1,
                    "outlettype": [ "" ],
                    "parameter_enable": 0,
                    "patching_rect": [ 24.0, 92.0, 20.0, 140.0 ]
                }
            }
        ],
        "lines": [
            {
                "patchline": {
                    "destination": [ "obj-16", 0 ],
                    "order": 1,
                    "source": [ "obj-11", 0 ]
                }
            },
            {
                "patchline": {
                    "destination": [ "obj-27", 0 ],
                    "order": 0,
                    "source": [ "obj-11", 0 ]
                }
            },
            {
                "patchline": {
                    "destination": [ "obj-18", 0 ],
                    "order": 0,
                    "source": [ "obj-16", 0 ]
                }
            },
            {
                "patchline": {
                    "destination": [ "obj-21", 0 ],
                    "order": 1,
                    "source": [ "obj-16", 0 ]
                }
            },
            {
                "patchline": {
                    "destination": [ "obj-16", 0 ],
                    "order": 0,
                    "source": [ "obj-19", 0 ]
                }
            },
            {
                "patchline": {
                    "destination": [ "obj-17", 0 ],
                    "order": 1,
                    "source": [ "obj-19", 0 ]
                }
            },
            {
                "patchline": {
                    "destination": [ "obj-26", 0 ],
                    "order": 1,
                    "source": [ "obj-24", 0 ]
                }
            },
            {
                "patchline": {
                    "destination": [ "obj-27", 0 ],
                    "order": 0,
                    "source": [ "obj-24", 0 ]
                }
            },
            {
                "patchline": {
                    "destination": [ "obj-21", 1 ],
                    "order": 1,
                    "source": [ "obj-27", 0 ]
                }
            },
            {
                "patchline": {
                    "destination": [ "obj-25", 0 ],
                    "order": 0,
                    "source": [ "obj-27", 0 ]
                }
            },
            {
                "patchline": {
                    "destination": [ "obj-11", 0 ],
                    "source": [ "obj-28", 0 ]
                }
            }
        ],
        "autosave": 0
    }
}