{
    "patcher": {
        "fileversion": 1,
        "appversion": {
            "major": 9,
            "minor": 1,
            "revision": 2,
            "architecture": "x64",
            "modernui": 1
        },
        "classnamespace": "box",
        "rect": [ 404.0, 229.0, 1000.0, 711.0 ],
        "boxes": [
            {
                "box": {
                    "id": "obj-78",
                    "maxclass": "newobj",
                    "numinlets": 1,
                    "numoutlets": 0,
                    "patching_rect": [ 1195.0070577859879, 980.2817029953003, 32.0, 22.0 ],
                    "text": "print"
                }
            },
            {
                "box": {
                    "id": "obj-77",
                    "maxclass": "newobj",
                    "numinlets": 2,
                    "numoutlets": 2,
                    "outlettype": [ "", "" ],
                    "patching_rect": [ 1195.0070577859879, 929.577476978302, 51.0, 22.0 ],
                    "text": "zl group"
                }
            },
            {
                "box": {
                    "id": "obj-76",
                    "maxclass": "newobj",
                    "numinlets": 2,
                    "numoutlets": 1,
                    "outlettype": [ "float" ],
                    "patching_rect": [ 1283.0986083745956, 856.3380393981934, 40.0, 22.0 ],
                    "text": "* 0.01"
                }
            },
            {
                "box": {
                    "id": "obj-75",
                    "maxclass": "newobj",
                    "numinlets": 2,
                    "numoutlets": 1,
                    "outlettype": [ "" ],
                    "patching_rect": [ 1283.0986083745956, 808.4507148265839, 73.0, 22.0 ],
                    "text": "random 100"
                }
            },
            {
                "box": {
                    "id": "obj-73",
                    "maxclass": "newobj",
                    "numinlets": 2,
                    "numoutlets": 3,
                    "outlettype": [ "bang", "bang", "int" ],
                    "patching_rect": [ 1184.5070577859879, 723.7499309778214, 40.0, 22.0 ],
                    "text": "uzi 4"
                }
            },
            {
                "box": {
                    "id": "obj-72",
                    "maxclass": "button",
                    "numinlets": 1,
                    "numoutlets": 1,
                    "outlettype": [ "bang" ],
                    "parameter_enable": 0,
                    "patching_rect": [ 1184.5070577859879, 674.6478961706161, 24.0, 24.0 ]
                }
            },
            {
                "box": {
                    "id": "obj-70",
                    "maxclass": "newobj",
                    "numinlets": 1,
                    "numoutlets": 4,
                    "outlettype": [ "float", "float", "float", "float" ],
                    "patching_rect": [ 1352.0546962022781, 541.0958510637283, 74.0, 22.0 ],
                    "text": "unpack f f f f"
                }
            },
            {
                "box": {
                    "id": "obj-69",
                    "maxclass": "message",
                    "numinlets": 2,
                    "numoutlets": 1,
                    "outlettype": [ "" ],
                    "patching_rect": [ 1446.57523727417, 541.0958510637283, 179.45204174518585, 22.0 ],
                    "text": "0.01 0.42 0.5 0.76"
                }
            },
            {
                "box": {
                    "id": "obj-67",
                    "maxclass": "multislider",
                    "numinlets": 1,
                    "numoutlets": 2,
                    "outlettype": [ "", "" ],
                    "parameter_enable": 0,
                    "patching_rect": [ 1352.0546962022781, 355.99996066093445, 219.0, 135.0 ],
                    "setminmax": [ 0.0, 1.0 ],
                    "setstyle": 1,
                    "size": 4
                }
            },
            {
                "box": {
                    "id": "obj-66",
                    "linecount": 2,
                    "maxclass": "comment",
                    "numinlets": 1,
                    "numoutlets": 0,
                    "patching_rect": [ 1126.2498925924301, 251.2499760389328, 150.0, 33.0 ],
                    "text": "sert the volume of the 4 harmonic oscillators"
                }
            },
            {
                "box": {
                    "id": "obj-64",
                    "linecount": 3,
                    "maxclass": "comment",
                    "numinlets": 1,
                    "numoutlets": 0,
                    "patching_rect": [ 1126.2498925924301, 196.5, 150.0, 47.0 ],
                    "text": "multislider @size 4 @setstyle 1 @setminmax 0. 1.>"
                }
            },
            {
                "box": {
                    "id": "obj-61",
                    "maxclass": "comment",
                    "numinlets": 1,
                    "numoutlets": 0,
                    "patching_rect": [ 1171.2498883008957, 413.49996066093445, 150.0, 20.0 ],
                    "text": "engine"
                }
            },
            {
                "box": {
                    "id": "obj-59",
                    "maxclass": "newobj",
                    "numinlets": 2,
                    "numoutlets": 1,
                    "outlettype": [ "signal" ],
                    "patching_rect": [ 899.6985403299332, 545.2054398059845, 29.5, 22.0 ],
                    "text": "*~"
                }
            },
            {
                "box": {
                    "id": "obj-58",
                    "maxclass": "newobj",
                    "numinlets": 2,
                    "numoutlets": 1,
                    "outlettype": [ "signal" ],
                    "patching_rect": [ 994.219081401825, 545.2054398059845, 29.5, 22.0 ],
                    "text": "*~"
                }
            },
            {
                "box": {
                    "id": "obj-57",
                    "maxclass": "newobj",
                    "numinlets": 2,
                    "numoutlets": 1,
                    "outlettype": [ "signal" ],
                    "patching_rect": [ 1085.999896645546, 545.2054398059845, 29.5, 22.0 ],
                    "text": "*~"
                }
            },
            {
                "box": {
                    "id": "obj-56",
                    "maxclass": "newobj",
                    "numinlets": 2,
                    "numoutlets": 1,
                    "outlettype": [ "signal" ],
                    "patching_rect": [ 799.6985476016998, 545.2054398059845, 29.5, 22.0 ],
                    "text": "*~"
                }
            },
            {
                "box": {
                    "id": "obj-55",
                    "maxclass": "spectroscope~",
                    "numinlets": 2,
                    "numoutlets": 1,
                    "outlettype": [ "" ],
                    "patching_rect": [ 32.5, 612.4999415874481, 191.0, 51.0 ]
                }
            },
            {
                "box": {
                    "id": "obj-54",
                    "maxclass": "comment",
                    "numinlets": 1,
                    "numoutlets": 0,
                    "patching_rect": [ 950.7499133348465, 247.49997639656067, 150.0, 20.0 ],
                    "text": "midi velocity"
                }
            },
            {
                "box": {
                    "format": 6,
                    "id": "obj-52",
                    "maxclass": "flonum",
                    "numinlets": 1,
                    "numoutlets": 2,
                    "outlettype": [ "", "bang" ],
                    "parameter_enable": 0,
                    "patching_rect": [ 941.249910235405, 291.24997222423553, 50.0, 22.0 ]
                }
            },
            {
                "box": {
                    "id": "obj-50",
                    "maxclass": "newobj",
                    "numinlets": 2,
                    "numoutlets": 1,
                    "outlettype": [ "signal" ],
                    "patching_rect": [ 992.7499133348465, 363.74996531009674, 34.0, 22.0 ],
                    "text": "*~ 3."
                }
            },
            {
                "box": {
                    "id": "obj-49",
                    "maxclass": "newobj",
                    "numinlets": 2,
                    "numoutlets": 1,
                    "outlettype": [ "signal" ],
                    "patching_rect": [ 1083.749896645546, 363.74996531009674, 34.0, 22.0 ],
                    "text": "*~ 4."
                }
            },
            {
                "box": {
                    "id": "obj-48",
                    "maxclass": "newobj",
                    "numinlets": 2,
                    "numoutlets": 1,
                    "outlettype": [ "signal" ],
                    "patching_rect": [ 898.7499142885208, 363.74996531009674, 34.0, 22.0 ],
                    "text": "*~ 2."
                }
            },
            {
                "box": {
                    "color": [ 0.8705882352941177, 0.03529411764705882, 0.03529411764705882, 1.0 ],
                    "id": "obj-47",
                    "maxclass": "newobj",
                    "numinlets": 2,
                    "numoutlets": 1,
                    "outlettype": [ "signal" ],
                    "patching_rect": [ 898.7499142885208, 412.49996066093445, 66.0, 22.0 ],
                    "text": "cycle~ 440"
                }
            },
            {
                "box": {
                    "color": [ 0.8705882352941177, 0.047058823529411764, 0.047058823529411764, 1.0 ],
                    "id": "obj-46",
                    "maxclass": "newobj",
                    "numinlets": 2,
                    "numoutlets": 1,
                    "outlettype": [ "signal" ],
                    "patching_rect": [ 992.7499133348465, 412.49996066093445, 66.0, 22.0 ],
                    "text": "cycle~ 440"
                }
            },
            {
                "box": {
                    "color": [ 0.8705882352941177, 0.03529411764705882, 0.03529411764705882, 1.0 ],
                    "id": "obj-45",
                    "maxclass": "newobj",
                    "numinlets": 2,
                    "numoutlets": 1,
                    "outlettype": [ "signal" ],
                    "patching_rect": [ 1083.749896645546, 412.49996066093445, 66.0, 22.0 ],
                    "text": "cycle~ 440"
                }
            },
            {
                "box": {
                    "color": [ 0.8509803921568627, 0.01568627450980392, 0.01568627450980392, 1.0 ],
                    "id": "obj-44",
                    "maxclass": "newobj",
                    "numinlets": 2,
                    "numoutlets": 1,
                    "outlettype": [ "signal" ],
                    "patching_rect": [ 799.9999237060547, 412.49996066093445, 66.0, 22.0 ],
                    "text": "cycle~ 440"
                }
            },
            {
                "box": {
                    "id": "obj-42",
                    "maxclass": "message",
                    "numinlets": 2,
                    "numoutlets": 1,
                    "outlettype": [ "" ],
                    "patching_rect": [ 591.2499507665634, 466.249955534935, 31.0, 22.0 ],
                    "text": "next"
                }
            },
            {
                "box": {
                    "id": "obj-40",
                    "linecount": 2,
                    "maxclass": "comment",
                    "numinlets": 1,
                    "numoutlets": 0,
                    "patching_rect": [ 263.0, 110.0, 150.0, 33.0 ],
                    "text": "to add a sustain point: its CMD double click"
                }
            },
            {
                "box": {
                    "id": "obj-38",
                    "maxclass": "newobj",
                    "numinlets": 2,
                    "numoutlets": 1,
                    "outlettype": [ "signal" ],
                    "patching_rect": [ 242.0, 443.7499576807022, 29.5, 22.0 ],
                    "text": "*~"
                }
            },
            {
                "box": {
                    "id": "obj-37",
                    "maxclass": "newobj",
                    "numinlets": 5,
                    "numoutlets": 1,
                    "outlettype": [ "" ],
                    "patching_rect": [ 831.9999241828918, 663.0136504173279, 91.0, 22.0 ],
                    "text": "zmap 0 127 0 1"
                }
            },
            {
                "box": {
                    "id": "obj-36",
                    "maxclass": "newobj",
                    "numinlets": 1,
                    "numoutlets": 2,
                    "outlettype": [ "bang", "int" ],
                    "patching_rect": [ 727.3972073793411, 586.3013272285461, 123.74998819828033, 22.0 ],
                    "text": "t b i"
                }
            },
            {
                "box": {
                    "id": "obj-31",
                    "maxclass": "newobj",
                    "numinlets": 2,
                    "numoutlets": 2,
                    "outlettype": [ "bang", "" ],
                    "patching_rect": [ 591.2499507665634, 417.4999601840973, 154.9999852180481, 22.0 ],
                    "text": "sel 0"
                }
            },
            {
                "box": {
                    "id": "obj-28",
                    "maxclass": "newobj",
                    "numinlets": 1,
                    "numoutlets": 1,
                    "outlettype": [ "" ],
                    "patching_rect": [ 744.7499271631241, 354.99996614456177, 32.0, 22.0 ],
                    "text": "mtof"
                }
            },
            {
                "box": {
                    "id": "obj-21",
                    "maxclass": "comment",
                    "numinlets": 1,
                    "numoutlets": 0,
                    "patching_rect": [ 605.6249350905418, 268.74997437000275, 150.0, 20.0 ],
                    "text": "MIDI Pitch #"
                }
            },
            {
                "box": {
                    "id": "obj-17",
                    "maxclass": "newobj",
                    "numinlets": 2,
                    "numoutlets": 2,
                    "outlettype": [ "int", "int" ],
                    "patching_rect": [ 589.9999437332153, 306.24997079372406, 173.74998342990875, 22.0 ],
                    "text": "swap"
                }
            },
            {
                "box": {
                    "id": "obj-15",
                    "maxclass": "comment",
                    "numinlets": 1,
                    "numoutlets": 0,
                    "patching_rect": [ 302.49997115135193, 292.49997210502625, 150.0, 20.0 ],
                    "text": "engine"
                }
            },
            {
                "box": {
                    "id": "obj-12",
                    "maxclass": "kslider",
                    "numinlets": 2,
                    "numoutlets": 2,
                    "outlettype": [ "int", "int" ],
                    "parameter_enable": 0,
                    "patching_rect": [ 589.9999437332153, 209.0, 336.0, 53.0 ]
                }
            },
            {
                "box": {
                    "id": "obj-10",
                    "linecount": 4,
                    "maxclass": "comment",
                    "numinlets": 1,
                    "numoutlets": 0,
                    "patching_rect": [ 593.7499433755875, 96.5, 150.0, 60.0 ],
                    "text": "kslider @mode 2 - mode 2 means sned \"note off\" messages as well as \"note on\" messages"
                }
            },
            {
                "box": {
                    "id": "obj-26",
                    "maxclass": "comment",
                    "numinlets": 1,
                    "numoutlets": 0,
                    "patching_rect": [ 73.0, 10.0, 86.0, 20.0 ],
                    "text": "triggers output"
                }
            },
            {
                "box": {
                    "id": "obj-22",
                    "maxclass": "button",
                    "numinlets": 1,
                    "numoutlets": 1,
                    "outlettype": [ "bang" ],
                    "parameter_enable": 0,
                    "patching_rect": [ 44.0, 8.0, 24.0, 24.0 ]
                }
            },
            {
                "box": {
                    "id": "obj-20",
                    "linecount": 2,
                    "maxclass": "comment",
                    "numinlets": 1,
                    "numoutlets": 0,
                    "patching_rect": [ 250.0, 21.0, 151.0, 33.0 ],
                    "text": "length of the note duration of x axis"
                }
            },
            {
                "box": {
                    "format": 6,
                    "id": "obj-18",
                    "maxclass": "flonum",
                    "numinlets": 1,
                    "numoutlets": 2,
                    "outlettype": [ "", "bang" ],
                    "parameter_enable": 0,
                    "patching_rect": [ 167.0, 14.0, 50.0, 22.0 ]
                }
            },
            {
                "box": {
                    "id": "obj-16",
                    "maxclass": "message",
                    "numinlets": 2,
                    "numoutlets": 1,
                    "outlettype": [ "" ],
                    "patching_rect": [ 167.0, 41.0, 81.0, 22.0 ],
                    "text": "setdomain $1"
                }
            },
            {
                "box": {
                    "id": "obj-13",
                    "linecount": 7,
                    "maxclass": "comment",
                    "numinlets": 1,
                    "numoutlets": 0,
                    "patching_rect": [ 27.0, 69.5, 19.0, 114.0 ],
                    "text": "1\n\n\n\n\n\n0\n"
                }
            },
            {
                "box": {
                    "id": "obj-11",
                    "maxclass": "comment",
                    "numinlets": 1,
                    "numoutlets": 0,
                    "patching_rect": [ 44.0, 178.0, 228.0, 20.0 ],
                    "text": "0-------------------------------------------domain"
                }
            },
            {
                "box": {
                    "id": "obj-9",
                    "maxclass": "newobj",
                    "numinlets": 2,
                    "numoutlets": 2,
                    "outlettype": [ "signal", "bang" ],
                    "patching_rect": [ 111.0, 209.0, 34.0, 22.0 ],
                    "text": "line~"
                }
            },
            {
                "box": {
                    "id": "obj-8",
                    "maxclass": "comment",
                    "numinlets": 1,
                    "numoutlets": 0,
                    "patching_rect": [ 263.0, 70.0, 65.0, 20.0 ],
                    "text": "function"
                }
            },
            {
                "box": {
                    "addpoints": [ 0.0, 0.0, 0, 4.787234042553192, 0.92, 0, 6.861702127659574, 0.72, 0, 20.106382978723403, 0.72, 0, 30.0, 0.0, 0 ],
                    "classic_curve": 1,
                    "domain": 30.0,
                    "id": "obj-6",
                    "maxclass": "function",
                    "numinlets": 1,
                    "numoutlets": 4,
                    "outlettype": [ "float", "", "", "bang" ],
                    "parameter_enable": 0,
                    "patching_rect": [ 48.0, 70.0, 200.0, 100.0 ]
                }
            },
            {
                "box": {
                    "id": "obj-5",
                    "maxclass": "newobj",
                    "numinlets": 1,
                    "numoutlets": 0,
                    "patching_rect": [ 258.4999966621399, 779.9999256134033, 68.0, 22.0 ],
                    "text": "send~ out2"
                }
            },
            {
                "box": {
                    "id": "obj-4",
                    "maxclass": "newobj",
                    "numinlets": 1,
                    "numoutlets": 0,
                    "patching_rect": [ 172.25000488758087, 779.9999256134033, 68.0, 22.0 ],
                    "text": "send~ out1"
                }
            },
            {
                "box": {
                    "id": "obj-3",
                    "maxclass": "newobj",
                    "numinlets": 2,
                    "numoutlets": 1,
                    "outlettype": [ "signal" ],
                    "patching_rect": [ 221.00000023841858, 723.7499309778214, 54.0, 22.0 ],
                    "text": "*~ 0.707"
                }
            },
            {
                "box": {
                    "channels": 1,
                    "id": "obj-2",
                    "lastchannelcount": 0,
                    "maxclass": "live.gain~",
                    "numinlets": 1,
                    "numoutlets": 4,
                    "outlettype": [ "signal", "", "float", "list" ],
                    "parameter_enable": 1,
                    "patching_rect": [ 223.5, 558.7499467134476, 48.0, 136.0 ],
                    "saved_attribute_attributes": {
                        "valueof": {
                            "parameter_longname": "live.gain~",
                            "parameter_mmax": 6.0,
                            "parameter_mmin": -70.0,
                            "parameter_modmode": 3,
                            "parameter_shortname": "live.gain~",
                            "parameter_type": 0,
                            "parameter_unitstyle": 4
                        }
                    },
                    "varname": "live.gain~"
                }
            },
            {
                "box": {
                    "id": "obj-1",
                    "maxclass": "newobj",
                    "numinlets": 2,
                    "numoutlets": 1,
                    "outlettype": [ "signal" ],
                    "patching_rect": [ 242.0, 370.0, 29.5, 22.0 ],
                    "text": "*~"
                }
            }
        ],
        "lines": [
            {
                "patchline": {
                    "destination": [ "obj-38", 0 ],
                    "source": [ "obj-1", 0 ]
                }
            },
            {
                "patchline": {
                    "destination": [ "obj-17", 1 ],
                    "order": 2,
                    "source": [ "obj-12", 1 ]
                }
            },
            {
                "patchline": {
                    "destination": [ "obj-17", 0 ],
                    "source": [ "obj-12", 0 ]
                }
            },
            {
                "patchline": {
                    "destination": [ "obj-52", 0 ],
                    "order": 1,
                    "source": [ "obj-12", 1 ]
                }
            },
            {
                "patchline": {
                    "destination": [ "obj-72", 0 ],
                    "order": 0,
                    "source": [ "obj-12", 1 ]
                }
            },
            {
                "patchline": {
                    "destination": [ "obj-6", 0 ],
                    "source": [ "obj-16", 0 ]
                }
            },
            {
                "patchline": {
                    "destination": [ "obj-28", 0 ],
                    "source": [ "obj-17", 1 ]
                }
            },
            {
                "patchline": {
                    "destination": [ "obj-31", 0 ],
                    "source": [ "obj-17", 0 ]
                }
            },
            {
                "patchline": {
                    "destination": [ "obj-16", 0 ],
                    "source": [ "obj-18", 0 ]
                }
            },
            {
                "patchline": {
                    "destination": [ "obj-3", 0 ],
                    "source": [ "obj-2", 0 ]
                }
            },
            {
                "patchline": {
                    "destination": [ "obj-6", 0 ],
                    "source": [ "obj-22", 0 ]
                }
            },
            {
                "patchline": {
                    "destination": [ "obj-44", 0 ],
                    "order": 3,
                    "source": [ "obj-28", 0 ]
                }
            },
            {
                "patchline": {
                    "destination": [ "obj-48", 0 ],
                    "order": 2,
                    "source": [ "obj-28", 0 ]
                }
            },
            {
                "patchline": {
                    "destination": [ "obj-49", 0 ],
                    "order": 0,
                    "source": [ "obj-28", 0 ]
                }
            },
            {
                "patchline": {
                    "destination": [ "obj-50", 0 ],
                    "order": 1,
                    "source": [ "obj-28", 0 ]
                }
            },
            {
                "patchline": {
                    "destination": [ "obj-4", 0 ],
                    "order": 1,
                    "source": [ "obj-3", 0 ]
                }
            },
            {
                "patchline": {
                    "destination": [ "obj-5", 0 ],
                    "order": 0,
                    "source": [ "obj-3", 0 ]
                }
            },
            {
                "patchline": {
                    "destination": [ "obj-36", 0 ],
                    "source": [ "obj-31", 1 ]
                }
            },
            {
                "patchline": {
                    "destination": [ "obj-42", 0 ],
                    "source": [ "obj-31", 0 ]
                }
            },
            {
                "patchline": {
                    "color": [ 0.0, 0.9768045545, 0.0, 1.0 ],
                    "destination": [ "obj-22", 0 ],
                    "midpoints": [ 736.8972073793411, 523.2499531507492, 395.24996531009674, 523.2499531507492, 395.24996531009674, -2.0, 53.5, -2.0 ],
                    "source": [ "obj-36", 0 ]
                }
            },
            {
                "patchline": {
                    "destination": [ "obj-37", 0 ],
                    "source": [ "obj-36", 1 ]
                }
            },
            {
                "patchline": {
                    "destination": [ "obj-38", 1 ],
                    "source": [ "obj-37", 0 ]
                }
            },
            {
                "patchline": {
                    "destination": [ "obj-2", 0 ],
                    "order": 0,
                    "source": [ "obj-38", 0 ]
                }
            },
            {
                "patchline": {
                    "destination": [ "obj-55", 0 ],
                    "order": 1,
                    "source": [ "obj-38", 0 ]
                }
            },
            {
                "patchline": {
                    "color": [ 1.0, 0.1491314173, 0.0, 1.0 ],
                    "destination": [ "obj-6", 0 ],
                    "source": [ "obj-42", 0 ]
                }
            },
            {
                "patchline": {
                    "destination": [ "obj-56", 0 ],
                    "source": [ "obj-44", 0 ]
                }
            },
            {
                "patchline": {
                    "destination": [ "obj-57", 0 ],
                    "source": [ "obj-45", 0 ]
                }
            },
            {
                "patchline": {
                    "destination": [ "obj-58", 0 ],
                    "source": [ "obj-46", 0 ]
                }
            },
            {
                "patchline": {
                    "destination": [ "obj-59", 0 ],
                    "source": [ "obj-47", 0 ]
                }
            },
            {
                "patchline": {
                    "destination": [ "obj-47", 0 ],
                    "source": [ "obj-48", 0 ]
                }
            },
            {
                "patchline": {
                    "destination": [ "obj-45", 0 ],
                    "source": [ "obj-49", 0 ]
                }
            },
            {
                "patchline": {
                    "destination": [ "obj-46", 0 ],
                    "source": [ "obj-50", 0 ]
                }
            },
            {
                "patchline": {
                    "destination": [ "obj-1", 1 ],
                    "source": [ "obj-56", 0 ]
                }
            },
            {
                "patchline": {
                    "destination": [ "obj-1", 1 ],
                    "source": [ "obj-57", 0 ]
                }
            },
            {
                "patchline": {
                    "destination": [ "obj-1", 1 ],
                    "source": [ "obj-58", 0 ]
                }
            },
            {
                "patchline": {
                    "destination": [ "obj-1", 1 ],
                    "source": [ "obj-59", 0 ]
                }
            },
            {
                "patchline": {
                    "destination": [ "obj-9", 0 ],
                    "source": [ "obj-6", 1 ]
                }
            },
            {
                "patchline": {
                    "destination": [ "obj-69", 1 ],
                    "order": 0,
                    "source": [ "obj-67", 0 ]
                }
            },
            {
                "patchline": {
                    "destination": [ "obj-70", 0 ],
                    "order": 1,
                    "source": [ "obj-67", 0 ]
                }
            },
            {
                "patchline": {
                    "destination": [ "obj-56", 1 ],
                    "source": [ "obj-70", 0 ]
                }
            },
            {
                "patchline": {
                    "destination": [ "obj-57", 1 ],
                    "source": [ "obj-70", 3 ]
                }
            },
            {
                "patchline": {
                    "destination": [ "obj-58", 1 ],
                    "source": [ "obj-70", 2 ]
                }
            },
            {
                "patchline": {
                    "destination": [ "obj-59", 1 ],
                    "source": [ "obj-70", 1 ]
                }
            },
            {
                "patchline": {
                    "destination": [ "obj-73", 0 ],
                    "source": [ "obj-72", 0 ]
                }
            },
            {
                "patchline": {
                    "destination": [ "obj-75", 0 ],
                    "source": [ "obj-73", 0 ]
                }
            },
            {
                "patchline": {
                    "destination": [ "obj-77", 0 ],
                    "source": [ "obj-73", 1 ]
                }
            },
            {
                "patchline": {
                    "destination": [ "obj-76", 0 ],
                    "source": [ "obj-75", 0 ]
                }
            },
            {
                "patchline": {
                    "destination": [ "obj-77", 0 ],
                    "source": [ "obj-76", 0 ]
                }
            },
            {
                "patchline": {
                    "destination": [ "obj-67", 0 ],
                    "order": 0,
                    "source": [ "obj-77", 0 ]
                }
            },
            {
                "patchline": {
                    "destination": [ "obj-78", 0 ],
                    "order": 1,
                    "source": [ "obj-77", 0 ]
                }
            },
            {
                "patchline": {
                    "destination": [ "obj-1", 0 ],
                    "source": [ "obj-9", 0 ]
                }
            }
        ],
        "parameters": {
            "obj-2": [ "live.gain~", "live.gain~", 0 ],
            "inherited_shortname": 1
        },
        "autosave": 0
    }
}